<svg id="Layer_1" data-name="Layer 1" xmlns="http://www.w3.org/2000/svg" width="26.94" height="24.71" viewBox="0 0 26.94 24.71"><defs><style>.cls-1{fill:#f15b27;}</style></defs><path class="cls-1" d="M16,15.44c2.1-1.61,5.18-4,5.18-12.88v-.7H5.77v.7c0,8.89,3.15,11.27,5.18,12.88,1.19.91,1.82,1.4,1.82,2.52v2.1a3.35,3.35,0,0,0-2.66,1.4H8.57a1.4,1.4,0,0,0-1.4,1.4h12.6a1.4,1.4,0,0,0-1.4-1.4H16.83a3.24,3.24,0,0,0-2.66-1.4V18C14.17,16.84,14.73,16.35,16,15.44Zm-2.52.35a8,8,0,0,0-1.61-1.47C10,12.85,7.38,10.89,7.24,3.26h12.6c-.14,7.56-2.73,9.59-4.62,11.06A7.47,7.47,0,0,0,13.47,15.79Z"/><path class="cls-1" d="M9.13,13.76A9.81,9.81,0,0,1,1.57,4v-.7h4.9v1.4H3a8.35,8.35,0,0,0,6.44,7.7Zm8.68,0-.28-1.4A8.33,8.33,0,0,0,24,4.66h-3.5V3.26h4.9V4a9.81,9.81,0,0,1-7.56,9.8Z"/></svg>