<?xml version="1.0" encoding="utf-8"?>
<!-- Generator: Adobe Illustrator 25.2.1, SVG Export Plug-In . SVG Version: 6.00 Build 0)  -->
<svg version="1.1" id="Layer_1" xmlns="http://www.w3.org/2000/svg" xmlns:xlink="http://www.w3.org/1999/xlink" x="0px" y="0px"
	 width="43.3px" height="40.8px" viewBox="0 0 43.3 40.8" style="enable-background:new 0 0 43.3 40.8;" xml:space="preserve">
<style type="text/css">
	.st0{fill:#F2696A;}
	.st1{fill:none;stroke:#FFFFFF;stroke-width:1.5;stroke-linecap:round;stroke-linejoin:round;}
</style>
<g>
	<g>
		<path class="st0" d="M33,40.3H10.3c-5.5,0-10-4.5-10-10V10.5c0-5.5,4.5-10,10-10l22.7,0c5.5,0,10,4.5,10,10v19.8
			C43,35.8,38.5,40.3,33,40.3z"/>
	</g>
	<path class="st1" d="M24.4,17l-0.3,9 M19.3,26l-0.3-9 M28.9,13.7c0.3,0.1,0.7,0.1,1,0.2 M28.9,13.7l-1.1,13.9
		c0,0.6-0.3,1.1-0.7,1.5c-0.4,0.4-1,0.6-1.5,0.6h-7.8c-0.6,0-1.1-0.2-1.5-0.6c-0.4-0.4-0.7-0.9-0.7-1.5l-1.1-13.9 M28.9,13.7
		c-1.2-0.2-2.3-0.3-3.5-0.4 M13.4,13.9c0.3-0.1,0.7-0.1,1-0.2 M14.4,13.7c1.2-0.2,2.3-0.3,3.5-0.4 M25.4,13.3v-0.9
		c0-1.2-0.9-2.2-2.1-2.2c-1.1,0-2.2,0-3.3,0c-1.2,0-2.1,1-2.1,2.2v0.9 M25.4,13.3c-2.5-0.2-5-0.2-7.5,0"/>
</g>
</svg>
