<svg id="Layer_1" data-name="Layer 1" xmlns="http://www.w3.org/2000/svg" xmlns:xlink="http://www.w3.org/1999/xlink" width="43.33" height="40.76" viewBox="0 0 43.33 40.76"><defs><style>.cls-1{fill:url(#linear-gradient);}.cls-2{fill:none;stroke:#fff;stroke-linecap:round;stroke-linejoin:round;stroke-width:1.5px;}</style><linearGradient id="linear-gradient" x1="0.3" y1="20.38" x2="43.04" y2="20.38" gradientUnits="userSpaceOnUse"><stop offset="0" stop-color="#8276b6"/><stop offset="1" stop-color="#596bb2"/></linearGradient></defs><rect class="cls-1" x="0.3" y="0.62" width="42.74" height="39.52" rx="10"/><path class="cls-2" d="M27.16,12.31l2.64,2.62m-1.5,6.82v4.72a2.24,2.24,0,0,1-.66,1.58,2.27,2.27,0,0,1-1.59.65H15.55a2.28,2.28,0,0,1-1.6-.65,2.23,2.23,0,0,1-.65-1.58V16.05A2.22,2.22,0,0,1,14,14.47a2.29,2.29,0,0,1,1.6-.66H20.3m6.86-1.5,1.68-1.67a1.88,1.88,0,0,1,2.66,0A1.84,1.84,0,0,1,32.05,12a1.86,1.86,0,0,1-.55,1.32L20.88,23.81A4.53,4.53,0,0,1,19,24.93l-2.68.79.8-2.66a4.38,4.38,0,0,1,1.13-1.88l8.93-8.87Z"/></svg>