<svg id="Layer_1" data-name="Layer 1" xmlns="http://www.w3.org/2000/svg" width="10.85" height="13.9" viewBox="0 0 10.85 13.9"><defs><style>.cls-1{fill:#f2696a;}</style></defs><path class="cls-1" d="M7.42,1.71a.51.51,0,0,0-.28-.56.53.53,0,0,0-.33,0,.45.45,0,0,0-.27.18L1.69,7.48a.46.46,0,0,0-.1.25.48.48,0,0,0,0,.27.55.55,0,0,0,.19.21.5.5,0,0,0,.26.08H4.93l-.83,3.9a.49.49,0,0,0,.28.56.47.47,0,0,0,.33,0A.53.53,0,0,0,5,12.6L9.17,7.09a.64.64,0,0,0,.1-.26.62.62,0,0,0,0-.27A.61.61,0,0,0,9,6.36a.5.5,0,0,0-.26-.08H6.39l1-4.57Z"/></svg>