<?xml version="1.0" encoding="utf-8"?>
<!-- Generator: Adobe Illustrator 25.2.1, SVG Export Plug-In . SVG Version: 6.00 Build 0)  -->
<svg version="1.1" id="Layer_1" xmlns="http://www.w3.org/2000/svg" xmlns:xlink="http://www.w3.org/1999/xlink" x="0px" y="0px"
	 width="30.1px" height="30.1px" viewBox="0 0 30.1 30.1" style="enable-background:new 0 0 30.1 30.1;" xml:space="preserve">
<style type="text/css">
	.st0{fill:none;stroke:#D4DBF9;stroke-miterlimit:10;}
	.st1{fill:none;stroke:#2A3042;stroke-miterlimit:10;}
	.st2{fill:#FFFFFF;}
	.st3{fill:#2A3042;}
	.st4{fill:none;stroke:#7382C3;stroke-width:1.5;stroke-miterlimit:10;}
	.st5{fill:#DA9FFD;}
	.st6{fill:#E6E9EE;}
	.st7{fill:#7382C3;}
	.st8{fill:#FFFEFC;}
	.st9{fill:#324A5E;}
	.st10{fill:#FB6969;}
	.st11{fill:none;stroke:#FFFFFF;stroke-miterlimit:10;}
	.st12{fill:#39B54A;}
	.st13{fill:none;stroke:#7E4DFE;stroke-width:1.5;stroke-miterlimit:10;}
	.st14{fill:#FF8FA3;}
	.st15{clip-path:url(#SVGID_2_);}
	.st16{fill:#F97893;}
	.st17{opacity:0.4;fill:#F9ACBC;}
	.st18{opacity:0.3;fill:none;stroke:#FFFFFF;stroke-miterlimit:10;}
	.st19{fill:#73D4DC;}
	.st20{clip-path:url(#SVGID_4_);}
	.st21{fill:#64C4CF;}
	.st22{fill:#73D3DE;}
	.st23{fill:#B9E5FD;}
	.st24{fill:#AF8EFF;}
	.st25{clip-path:url(#SVGID_6_);}
	.st26{fill:#9879F7;}
	.st27{fill:#C0AFF9;}
	.st28{fill:none;stroke:#9879F7;stroke-miterlimit:10;}
	.st29{fill:none;stroke:#64C4CF;stroke-miterlimit:10;}
	.st30{fill:none;stroke:#F97893;stroke-miterlimit:10;}
	.st31{fill:url(#SVGID_7_);}
	.st32{fill:none;stroke:#F6F6F6;stroke-miterlimit:10;}
	.st33{fill:url(#SVGID_8_);}
	.st34{fill:none;stroke:#172B4C;stroke-miterlimit:10;}
	.st35{fill:#F1F2F7;}
	.st36{fill:#7E4DFE;}
	.st37{opacity:0.9;}
	.st38{fill:none;stroke:#6E6B7B;}
	.st39{fill:none;stroke:#172B4C;stroke-width:1.5;stroke-linecap:round;stroke-linejoin:round;}
	.st40{clip-path:url(#SVGID_10_);}
	.st41{fill:#8565FC;}
	.st42{fill:none;stroke:#8977F2;stroke-miterlimit:10;}
	.st43{fill:#6D48F7;}
</style>
<g>
	<g>
		<g>
			<path class="st30" d="M12.8,5.9c-2.3,0-4.5,0.7-6.4,1.9S3.1,10.9,2.2,13c-0.9,2.1-1.1,4.4-0.7,6.6c0.4,2.2,1.5,4.3,3.1,5.9
				c1.6,1.6,3.6,2.7,5.9,3.1c2.2,0.4,4.5,0.2,6.6-0.7c2.1-0.9,3.9-2.3,5.1-4.2c1.3-1.9,1.9-4.1,1.9-6.4H12.8V5.9z"/>
		</g>
		<g>
			<path class="st30" d="M17.4,12.8h11.5c0-3-1.2-6-3.4-8.1s-5.1-3.4-8.1-3.4V12.8z"/>
		</g>
	</g>
</g>
</svg>
