<?xml version="1.0" encoding="utf-8"?>
<!-- Generator: Adobe Illustrator 25.2.1, SVG Export Plug-In . SVG Version: 6.00 Build 0)  -->
<svg version="1.1" id="Layer_1" xmlns="http://www.w3.org/2000/svg" xmlns:xlink="http://www.w3.org/1999/xlink" x="0px" y="0px"
	 width="24.1px" height="20.4px" viewBox="0 0 24.1 20.4" style="enable-background:new 0 0 24.1 20.4;" xml:space="preserve">
<style type="text/css">
	.st0{fill:none;stroke:#D4DBF9;stroke-miterlimit:10;}
	.st1{fill:none;stroke:#2A3042;stroke-miterlimit:10;}
	.st2{fill:#FFFFFF;}
	.st3{fill:#2A3042;}
	.st4{fill:none;stroke:#7382C3;stroke-width:1.5;stroke-miterlimit:10;}
	.st5{fill:#DA9FFD;}
	.st6{fill:#E6E9EE;}
	.st7{fill:#7382C3;}
	.st8{fill:#FFFEFC;}
	.st9{fill:#324A5E;}
	.st10{fill:#FB6969;}
	.st11{fill:none;stroke:#FFFFFF;stroke-miterlimit:10;}
	.st12{fill:#39B54A;}
	.st13{fill:none;stroke:#7E4DFE;stroke-width:1.5;stroke-miterlimit:10;}
	.st14{fill:#FF8FA3;}
	.st15{clip-path:url(#SVGID_2_);}
	.st16{fill:#F97893;}
	.st17{opacity:0.4;fill:#F9ACBC;}
	.st18{opacity:0.3;fill:none;stroke:#FFFFFF;stroke-miterlimit:10;}
	.st19{fill:#73D4DC;}
	.st20{clip-path:url(#SVGID_4_);}
	.st21{fill:#64C4CF;}
	.st22{fill:#73D3DE;}
	.st23{fill:#B9E5FD;}
	.st24{fill:#AF8EFF;}
	.st25{clip-path:url(#SVGID_6_);}
	.st26{fill:#9879F7;}
	.st27{fill:#C0AFF9;}
	.st28{fill:none;stroke:#9879F7;stroke-miterlimit:10;}
	.st29{fill:none;stroke:#64C4CF;stroke-miterlimit:10;}
	.st30{fill:none;stroke:#F97893;stroke-miterlimit:10;}
	.st31{fill:url(#SVGID_7_);}
	.st32{fill:none;stroke:#F6F6F6;stroke-miterlimit:10;}
	.st33{fill:url(#SVGID_8_);}
	.st34{fill:none;stroke:#172B4C;stroke-miterlimit:10;}
	.st35{fill:#F1F2F7;}
	.st36{fill:#7E4DFE;}
	.st37{opacity:0.9;}
	.st38{fill:none;stroke:#6E6B7B;}
	.st39{fill:none;stroke:#172B4C;stroke-width:1.5;stroke-linecap:round;stroke-linejoin:round;}
	.st40{clip-path:url(#SVGID_10_);}
	.st41{fill:#8565FC;}
	.st42{fill:none;stroke:#8977F2;stroke-miterlimit:10;}
	.st43{fill:#6D48F7;}
</style>
<g>
	<path class="st0" d="M15.5,4.7c0,0.9-0.4,1.8-1,2.4c-0.6,0.6-1.5,1-2.4,1c-0.9,0-1.8-0.4-2.4-1c-0.6-0.6-1-1.5-1-2.4s0.4-1.8,1-2.4
		c0.6-0.6,1.5-1,2.4-1c0.9,0,1.8,0.4,2.4,1C15.2,2.9,15.5,3.8,15.5,4.7L15.5,4.7z M5.1,17.7c0-1.8,0.8-3.5,2.1-4.8
		c1.3-1.3,3-2,4.8-2s3.6,0.7,4.8,2c1.3,1.3,2,3,2.1,4.8c-2.2,1-4.5,1.5-6.9,1.5C9.6,19.2,7.2,18.7,5.1,17.7z"/>
</g>
</svg>
