<?xml version="1.0" encoding="utf-8"?>
<!-- Generator: Adobe Illustrator 25.2.1, SVG Export Plug-In . SVG Version: 6.00 Build 0)  -->
<svg version="1.1" id="Layer_1" xmlns="http://www.w3.org/2000/svg" xmlns:xlink="http://www.w3.org/1999/xlink" x="0px" y="0px"
	 width="49.4px" height="49.4px" viewBox="0 0 49.4 49.4" style="enable-background:new 0 0 49.4 49.4;" xml:space="preserve">
<style type="text/css">
	.st0{fill:none;stroke:#D4DBF9;stroke-miterlimit:10;}
	.st1{fill:none;stroke:#2A3042;stroke-miterlimit:10;}
	.st2{fill:#FFFFFF;}
	.st3{fill:#2A3042;}
	.st4{fill:none;stroke:#7382C3;stroke-width:1.5;stroke-miterlimit:10;}
	.st5{fill:#DA9FFD;}
	.st6{fill:#E6E9EE;}
	.st7{fill:#7382C3;}
	.st8{fill:#FFFEFC;}
	.st9{fill:#324A5E;}
	.st10{fill:#FB6969;}
	.st11{fill:none;stroke:#FFFFFF;stroke-miterlimit:10;}
	.st12{fill:#39B54A;}
	.st13{fill:none;stroke:#7E4DFE;stroke-width:1.5;stroke-miterlimit:10;}
	.st14{fill:#FF8FA3;}
	.st15{clip-path:url(#SVGID_2_);}
	.st16{fill:#F97893;}
	.st17{opacity:0.4;fill:#F9ACBC;}
	.st18{opacity:0.3;fill:none;stroke:#FFFFFF;stroke-miterlimit:10;}
	.st19{fill:#73D4DC;}
	.st20{clip-path:url(#SVGID_4_);}
	.st21{fill:#64C4CF;}
	.st22{fill:#73D3DE;}
	.st23{fill:#B9E5FD;}
	.st24{fill:#AF8EFF;}
	.st25{clip-path:url(#SVGID_6_);}
	.st26{fill:#9879F7;}
	.st27{fill:#C0AFF9;}
	.st28{fill:none;stroke:#9879F7;stroke-miterlimit:10;}
	.st29{fill:none;stroke:#64C4CF;stroke-miterlimit:10;}
	.st30{fill:none;stroke:#F97893;stroke-miterlimit:10;}
	.st31{fill:url(#SVGID_7_);}
	.st32{fill:none;stroke:#F6F6F6;stroke-miterlimit:10;}
	.st33{fill:url(#SVGID_8_);}
	.st34{fill:none;stroke:#172B4C;stroke-miterlimit:10;}
	.st35{fill:#F1F2F7;}
	.st36{fill:#7E4DFE;}
	.st37{opacity:0.9;}
	.st38{fill:none;stroke:#6E6B7B;}
	.st39{fill:none;stroke:#172B4C;stroke-width:1.5;stroke-linecap:round;stroke-linejoin:round;}
	.st40{clip-path:url(#SVGID_10_);}
	.st41{fill:#8565FC;}
	.st42{fill:none;stroke:#8977F2;stroke-miterlimit:10;}
	.st43{fill:#6D48F7;}
</style>
<g>
	<circle class="st5" cx="24.7" cy="24.7" r="23.7"/>
	<g>
		<path class="st6" d="M24.8,34.9c0,0-0.1,0-0.1,0c0,0-0.1,0-0.1,0H24.8z"/>
		<path class="st7" d="M43.8,38.7c-4.3,5.9-11.3,9.7-19.1,9.7S9.9,44.7,5.5,38.7c3.4-3.6,7.9-5.5,11.7-6.5c-0.3,2.7,1.1,6.4,1.1,6.3
			c1.4-3.3,6.2-3.6,6.2-3.6s4.8,0.3,6.3,3.6c0,0.1,1.5-3.6,1.1-6.3C35.9,33.2,40.5,35.2,43.8,38.7z"/>
	</g>
	<path class="st8" d="M30.6,29.8L30.6,29.8c0,0.5-0.3,3.1-5.8,5.2h-0.3c-5.5-2.1-5.8-4.7-5.8-5.2l0,0c0-1,0.3-1.9,0.7-2.8
		c1.5,1.7,3.3,2.8,5.2,2.8c1.9,0,3.7-1.1,5.2-2.8C30.3,27.8,30.6,28.8,30.6,29.8z"/>
	<g>
		<path class="st7" d="M30.6,29.7c0,0,0.3,3-5.9,5.3c0,0,4.8,0.3,6.3,3.6C31,38.7,33.8,31.5,30.6,29.7z"/>
		<path class="st7" d="M18.8,29.7c-3.2,1.8-0.4,9-0.3,8.9c1.4-3.3,6.3-3.6,6.3-3.6C18.5,32.7,18.8,29.7,18.8,29.7z"/>
	</g>
	<path class="st8" d="M30.2,27.7c-1.6,1.7-3.4,2.8-5.5,2.8s-4-1.1-5.5-2.8c0.1-0.3,0.2-0.5,0.3-0.7c1.5,1.7,3.3,2.8,5.2,2.8
		s3.7-1.1,5.2-2.8C30,27.2,30.1,27.4,30.2,27.7z"/>
	<path class="st8" d="M34.9,22c-0.8,1.3-2,2.1-2.9,1.9c-1.8,3.3-4.4,5.8-7.3,5.8s-5.5-2.5-7.3-5.8c-0.9,0.1-2.1-0.6-2.9-1.9
		c-0.9-1.5-1-3.2-0.1-3.8c0.2-0.1,0.4-0.2,0.7-0.1c0.6,1.5,1.4,2.5,1.4,2.5c-0.9-4.7,2.7-5.3,2.1-9.8c0,0,2.2,4.9,8.5,1.5l-0.5,0.9
		c8.8-2,5.9,8.4,5.8,8.7c1-1.3,1.6-2.5,2-3.7c0.1,0,0.3,0.1,0.4,0.1C35.9,18.7,35.8,20.4,34.9,22z"/>
	<path class="st9" d="M29.8,5.7c0.7-0.1,1.9,0.6,1.9,0.6C28.5,2.7,23.3,5,23.3,5c1.8-1.5,3.3-1.3,3.3-1.3C19.2,2.5,17.9,7,17.9,7
		c-0.3-0.5-0.3-1.3-0.3-1.6c-0.5,0.9,0,2.7,0,2.7c-0.5-1.3-2.4-1.1-2.4-1.1c1.6,0.3,1.8,1.2,1.8,1.2c-3.9,1.5-3.3,5.5-3.3,5.5
		l0.9-1.1c-1.2,4.4,1.8,7.9,1.8,7.9c-0.9-4.7,2.7-5.3,2.1-9.8c0,0,2.2,4.9,8.5,1.5L26.7,13c8.9-2,5.8,8.7,5.8,8.7
		c3.2-4,2.7-8.2,2.7-8.2l0.4,1.5C36.5,8.3,29.8,5.7,29.8,5.7z"/>
</g>
</svg>
